<?xml version="1.0" encoding="utf-8"?>
<!-- Generator: Adobe Adobe Illustrator 28.6.0, SVG Export Plug-In . SVG Version: 6.00 Build 0)  -->
<svg version="1.1" id="Lager_1" xmlns="http://www.w3.org/2000/svg" xmlns:xlink="http://www.w3.org/1999/xlink" x="0px" y="0px"
	 width="1190.55px" height="528.19px" viewBox="0 0 1190.55 528.19" style="enable-background:new 0 0 1190.55 528.19;"
	 xml:space="preserve">
<style type="text/css">
	.st0{fill:#FFFFFF;}
</style>
<g>
	<g>
		<path class="st0" d="M346.24,278.51v88.5c0,24,1.33,43.33,4,58h-42.5l-5.5-31c-18.17,24.34-43.67,36.5-76.5,36.5
			c-23,0-41.42-6.79-55.25-20.38c-13.84-13.59-27-29.95-27-49.13c0-29.33,19-51.75,44.5-67.25c25.5-15.5,62.75-23.25,111.75-23.25
			v-4.51c0-17.16-4.71-30.54-14.12-40.12c-9.41-9.58-23.38-14.38-41.88-14.38c-24.67,0-46.66,6.17-66,18.5l-10.5-30.5
			c23.33-14.66,51.16-22,83.5-22c31.5,0,55.29,8.67,71.37,26C338.19,220.84,346.24,245.84,346.24,278.51z M300.74,342.5v-40
			c-39,0-66.09,4.68-81.25,14c-15.17,9.34-22.75,22.17-22.75,38.5c0,12.84,3.79,22.88,11.38,30.13
			c7.58,7.25,17.62,10.88,30.12,10.88c17.66,0,32.5-5.46,44.5-16.38C294.74,368.71,300.74,356.34,300.74,342.5z"/>
		<path class="st0" d="M522.03,138.01l45.51-13.5v58.5h77v35.5h-77v126c0,16.84,2.7,28.96,8.11,36.38
			c5.42,7.42,14.05,11.12,25.88,11.12c10.83,0,19.67-1,26.5-3l2,35c-11.5,4.33-25.34,6.5-41.5,6.5c-44.34,0-66.5-27.66-66.5-82.99
			v-129h-36.76l-13.74-35.5h50.49V138.01z"/>
		<path class="st0" d="M643.33,425.01V260.02c0-31.34-0.67-57.01-2-77.01h41l2.99,52.69c6.16-17,15.59-30.25,28.26-39.75
			c12.66-9.5,26.4-14.25,41.25-14.25c3.16,0,7.32,0.33,12.5,1v44c-4.51-1-9.84-1.5-16-1.5c-16.84,0-31.29,6.59-43.38,19.75
			c-12.09,13.17-18.13,31.92-18.13,56.25v123.82H643.33z"/>
		<path class="st0" d="M819.95,122.01c0,8.33-2.76,15.34-8.25,21c-5.5,5.67-12.75,8.5-21.75,8.5c-8.67,0-15.75-2.83-21.25-8.5
			c-5.49-5.66-8.25-12.67-8.25-21c0-8.16,2.79-15.04,8.38-20.62c5.59-5.59,12.79-8.38,21.63-8.38c8.5,0,15.54,2.79,21.12,8.38
			C817.15,106.97,819.95,113.84,819.95,122.01z M813.44,425.01h-46.5v-242h46.5V425.01z"/>
		<path class="st0" d="M999.41,75.26h46.5v286.25c0,27,0.66,48.17,2,63.5h-41.5l-3.51-43c-8,15.33-19.49,27.25-34.5,35.75
			c-15,8.5-32,12.75-51,12.75c-30.66,0-56.25-11.54-76.75-34.62c-20.51-23.07-30.75-52.37-30.75-87.87
			c0-38.5,10.79-69.88,32.37-94.12c21.58-24.25,48.29-36.38,80.13-36.38c16.99,0,32.2,3.33,45.62,10
			c13.41,6.67,23.88,15.67,31.38,27V75.26z M999.41,321.01v-38.5c0-20.5-6.63-37.04-19.89-49.63
			c-13.24-12.58-29.12-18.87-47.62-18.87c-22.5,0-40.62,8.42-54.37,25.25C863.78,256.09,856.9,278,856.9,305
			c0,25.34,6.5,46.34,19.49,63c13,16.67,31.17,25,54.51,25c17.84,0,33.71-6.54,47.62-19.62
			C992.44,360.31,999.41,342.84,999.41,321.01z"/>
	</g>
	<path class="st0" d="M343.74,413.51l1.99-40.7c27.93,17.77,49.01,23.2,70.01,23.2c15.01,0,26.58-3.17,34.76-9.5
		c8.16-6.33,12.25-14.83,12.25-25.5c0-10.16-3.37-18.46-10.12-24.87c-6.75-6.41-18.55-12.46-35.38-18.13
		c-44.34-15.16-66.5-38-66.5-68.5c0-20.33,7.88-37.41,23.63-51.25c15.75-13.83,36.7-20.75,62.87-20.75
		c24.99,0,35.83,4.29,52.34,9.17l-4.3,31.83c-11.43-4.19-22.32-6.22-40.14-7c-22.66-1-31.48,3.04-38.65,9.12
		c-7.16,6.09-10.75,13.88-10.75,23.38c0,8.5,3.04,15.67,9.13,21.5c6.08,5.84,18.7,12.17,37.88,19.01
		c23.34,8.33,40.08,18.21,50.24,29.62c10.17,11.42,15.24,25.72,15.24,42.88c0,22-8.38,39.75-25.11,53.25
		c-16.75,13.5-39.54,20.25-68.38,20.25C388.24,430.51,364.57,424.84,343.74,413.51z"/>
</g>
</svg>
